<?xml version="1.0" standalone="no"?>
<!DOCTYPE svg PUBLIC "-//W3C//DTD SVG 20010904//EN"
 "http://www.w3.org/TR/2001/REC-SVG-20010904/DTD/svg10.dtd">
<svg version="1.0" xmlns="http://www.w3.org/2000/svg"
 width="2048.000000pt" height="2048.000000pt" viewBox="0 0 2048.000000 2048.000000"
 preserveAspectRatio="xMidYMid meet">
<metadata>
Created by potrace 1.14, written by Peter Selinger 2001-2017
</metadata>
<g transform="translate(0.000000,2048.000000) scale(0.100000,-0.100000)"
fill="#000000" stroke="none">
<path d="M9902 16533 c-158 -75 -153 -294 13 -528 32 -45 45 -74 50 -113 7
-59 49 -192 95 -302 30 -72 160 -327 214 -420 14 -25 65 -123 112 -218 l87
-173 -25 -27 c-32 -36 -47 -72 -53 -135 -26 -246 -89 -419 -192 -524 -83 -85
-146 -103 -198 -55 -27 25 -232 202 -280 241 -11 9 -72 59 -135 111 -63 52
-122 100 -130 107 -8 6 -42 34 -75 60 -33 27 -77 60 -98 73 -20 14 -39 32 -42
40 -8 26 -78 96 -114 114 -18 10 -43 15 -56 12 -27 -7 -55 -61 -55 -105 0 -19
-7 -34 -19 -40 -32 -17 -54 -77 -48 -132 13 -117 112 -230 306 -346 51 -31 96
-64 99 -72 14 -38 4 -186 -17 -238 -11 -29 -23 -89 -27 -135 -10 -128 -10
-130 -28 -140 -22 -12 -69 18 -146 93 -77 75 -141 125 -170 134 -42 13 -84 12
-113 -2 -37 -18 -30 -27 80 -95 225 -140 281 -188 268 -227 -3 -12 -11 -19
-16 -16 -5 3 -25 -2 -45 -11 -35 -17 -36 -18 -29 -58 15 -88 12 -95 -34 -86
-32 6 -74 6 -101 1 -15 -3 -60 -54 -55 -62 6 -9 -43 -24 -80 -23 -11 0 -42 7
-70 14 -44 12 -47 14 -27 23 28 13 28 19 0 36 -31 19 -75 31 -136 38 -43 4
-64 1 -103 -17 -26 -13 -47 -26 -44 -29 2 -4 20 -8 39 -9 20 -2 46 -6 58 -11
20 -7 19 -9 -17 -21 -22 -7 -49 -19 -60 -26 -38 -24 -176 30 -228 90 -56 63
-77 145 -80 312 -2 69 -7 119 -12 119 -90 -2 -128 -47 -152 -175 -5 -30 -41
-70 -62 -70 -9 0 -23 15 -32 33 -29 59 -72 44 -185 -66 -62 -60 -73 -67 -78
-50 -10 32 -73 93 -103 102 -41 11 -61 3 -78 -28 -24 -47 8 -115 84 -180 l40
-35 -21 -29 c-26 -36 -85 -63 -158 -71 -74 -9 -119 -22 -154 -45 l-29 -20 -28
35 c-34 44 -53 121 -46 191 l6 54 -32 -7 c-96 -20 -114 -80 -68 -224 24 -75
27 -133 8 -149 -34 -27 -97 -15 -125 26 -7 10 -34 50 -60 88 -50 74 -112 119
-134 97 -12 -12 13 -91 35 -115 49 -52 108 -141 115 -174 11 -48 4 -69 -40
-113 -53 -54 -66 -78 -92 -180 -44 -172 -67 -222 -137 -297 -27 -28 -49 -58
-50 -65 -5 -84 -60 -150 -159 -192 -51 -21 -187 -54 -250 -61 -30 -4 -66 -9
-80 -11 -14 -3 -108 -8 -210 -11 l-185 -5 -50 83 c-112 188 -189 284 -265 331
-49 30 -61 33 -130 33 -61 -1 -84 -6 -125 -27 -27 -14 -57 -34 -67 -44 -49
-56 -56 -155 -19 -255 77 -205 334 -489 511 -564 64 -28 159 -83 202 -119 31
-26 34 -33 24 -48 -10 -14 -10 -31 2 -85 15 -74 12 -162 -9 -206 -7 -15 -27
-37 -45 -48 -30 -18 -37 -19 -61 -7 -17 8 -30 25 -35 43 -4 17 -12 49 -18 73
-13 51 -55 82 -104 76 -69 -8 -67 -55 9 -182 63 -106 20 -161 -187 -236 -62
-23 -98 -52 -98 -81 0 -64 -59 -54 -244 39 -164 83 -209 93 -246 56 -16 -16
-18 -24 -9 -47 21 -58 87 -95 234 -129 44 -10 107 -44 129 -68 27 -31 36 -61
32 -106 -5 -52 -33 -89 -110 -144 -90 -64 -107 -96 -121 -221 -7 -66 -13 -86
-38 -112 -21 -23 -41 -29 -136 -38 -65 -6 -111 -31 -129 -69 -12 -24 -12 -30
4 -48 16 -17 26 -19 84 -12 138 15 132 16 171 -27 39 -42 65 -112 62 -167 -2
-42 -16 -59 -56 -67 -42 -9 -64 -30 -72 -66 -13 -59 22 -69 152 -43 42 8 65
-16 92 -99 15 -45 37 -83 71 -122 65 -73 68 -85 45 -191 -8 -37 12 -57 59 -60
17 -1 34 -2 37 -3 9 -1 20 -30 26 -66 6 -41 33 -62 101 -75 95 -19 163 -69
214 -156 24 -41 45 -54 90 -54 50 0 57 -13 51 -90 -8 -99 10 -101 107 -15 28
25 55 45 60 45 4 0 17 3 27 7 10 4 2 -7 -17 -23 -115 -96 -150 -141 -150 -193
0 -21 9 -41 25 -57 21 -21 34 -25 73 -23 71 4 131 27 192 75 58 45 115 73 140
69 56 -11 119 -62 121 -99 2 -39 -2 -49 -63 -138 l-60 -88 -23 22 c-13 12 -21
27 -18 34 2 7 -8 15 -24 18 -97 22 -178 4 -206 -43 -16 -28 -16 -33 -2 -60 8
-17 32 -42 52 -57 21 -16 42 -31 46 -35 5 -3 -18 -21 -50 -39 -101 -57 -212
-156 -272 -244 -41 -59 -51 -130 -26 -174 55 -93 139 -53 376 180 84 83 143
132 179 150 30 15 56 25 58 23 2 -2 -2 -13 -8 -25 -15 -28 -19 -99 -7 -127 6
-13 18 -23 28 -23 34 0 101 116 93 163 -3 22 3 21 59 -3 58 -26 101 -30 157
-13 60 17 57 18 70 -22 22 -67 0 -119 -97 -226 -37 -41 -88 -99 -113 -129 -25
-29 -56 -65 -69 -79 -57 -63 -147 -237 -166 -320 -6 -28 -3 -32 30 -48 26 -12
35 -22 32 -35 -7 -26 28 -51 70 -50 57 2 213 84 383 200 13 9 22 13 19 7 -83
-156 -130 -282 -129 -345 1 -30 -1 -77 -4 -103 -6 -60 12 -112 64 -185 28 -40
36 -59 29 -68 -6 -7 -51 -36 -100 -65 -50 -30 -107 -67 -127 -85 l-36 -31 53
-7 c109 -14 197 -77 251 -178 40 -74 48 -157 24 -241 -22 -75 -57 -112 -155
-165 -139 -76 -176 -115 -166 -178 7 -43 31 -63 72 -63 38 0 64 23 142 125 74
97 121 125 217 126 110 2 202 -56 246 -155 16 -34 16 -45 6 -76 -20 -57 -20
-136 -1 -169 16 -27 16 -31 0 -62 -10 -19 -42 -70 -71 -114 -78 -115 -70 -158
25 -143 82 13 112 43 221 222 19 31 48 66 64 78 l29 20 -8 -39 c-4 -21 -9 -50
-11 -64 -3 -14 -7 -38 -10 -54 -6 -30 0 -30 36 -1 8 7 23 15 32 18 14 5 16 1
11 -27 -9 -58 27 -54 96 10 l24 23 44 -31 c51 -34 60 -51 45 -81 -30 -60 -21
-90 25 -90 27 0 30 -5 42 -51 7 -28 14 -66 17 -85 16 -116 113 -125 270 -25
98 63 149 82 212 80 86 -4 118 -25 152 -102 30 -66 49 -81 108 -86 16 -1 43 4
61 12 32 13 51 44 91 150 18 46 29 60 49 60 9 0 73 -16 142 -35 141 -41 218
-46 300 -20 15 5 19 1 19 -15 0 -38 31 -90 64 -107 44 -23 124 -20 170 7 35
21 96 97 96 119 0 5 12 9 28 7 44 -5 87 19 138 79 54 63 65 68 153 70 l63 2
62 64 c34 35 88 96 121 134 119 140 207 212 305 248 73 27 130 22 207 -18 37
-19 75 -35 84 -35 38 0 78 81 79 161 0 34 -8 59 -34 101 l-34 57 19 58 c35
109 62 142 114 142 47 0 90 -45 101 -105 8 -44 23 -98 31 -110 16 -22 59 -44
86 -44 64 0 112 45 128 119 6 31 13 59 16 64 2 4 18 -4 35 -18 29 -25 39 -27
107 -29 34 -1 35 -2 50 -66 22 -89 44 -131 99 -191 34 -37 55 -52 78 -54 55
-4 78 30 90 128 30 248 101 321 369 382 134 30 188 54 229 102 18 21 25 23 49
14 52 -20 108 27 123 103 6 34 9 37 33 31 59 -14 98 -43 144 -104 31 -43 45
-70 41 -80 -17 -39 -16 -86 3 -104 31 -28 75 -32 103 -9 l24 19 48 -31 c26
-17 48 -38 48 -46 0 -32 39 -79 72 -88 40 -10 60 -6 86 18 10 10 35 20 54 23
19 2 44 10 57 16 26 14 51 67 51 107 0 22 3 25 23 21 12 -3 44 -9 72 -13 73
-9 91 -19 159 -82 74 -70 105 -86 143 -71 38 14 69 45 109 106 19 29 38 53 44
53 5 0 23 -12 40 -27 l31 -28 -28 -55 c-50 -101 -26 -201 58 -234 93 -37 209
28 212 118 1 48 -22 94 -60 120 l-33 23 42 54 c78 99 71 94 122 75 31 -12 48
-26 59 -49 9 -17 14 -34 12 -37 -2 -3 -6 -28 -10 -56 -5 -46 -3 -55 20 -83 22
-25 34 -31 68 -31 37 0 120 31 132 50 2 4 -9 32 -25 61 -71 129 -11 223 180
283 41 13 76 23 78 21 2 -1 5 -15 8 -31 22 -121 131 -220 254 -231 56 -5 130
10 130 27 0 19 -82 77 -166 116 -49 23 -96 49 -103 58 -32 38 1 160 62 232 52
62 147 84 202 48 24 -16 27 -16 45 1 23 20 25 46 9 78 -16 29 -22 33 -96 58
-35 11 -63 23 -63 26 0 3 9 18 21 34 28 39 88 69 126 63 37 -6 56 15 55 57 -1
39 -25 66 -82 93 -56 26 -93 54 -108 82 -11 20 -9 21 33 17 40 -4 46 -2 83 35
46 46 58 86 32 112 -42 42 -117 30 -173 -26 l-27 -27 -1 29 c-1 44 -6 66 -29
118 -33 78 -12 121 71 147 57 18 79 40 81 80 2 69 -47 108 -114 88 l-29 -8 26
30 c30 37 30 40 5 81 -12 19 -20 51 -20 75 0 37 3 43 25 49 35 9 53 -1 73 -37
34 -64 64 -90 109 -93 79 -6 132 34 183 141 17 34 30 67 30 74 0 6 14 -3 32
-20 17 -17 37 -31 43 -31 22 0 54 31 60 59 13 59 -31 94 -84 68 l-30 -15 6 72
c2 39 7 77 9 85 7 21 53 7 177 -53 237 -115 368 -135 466 -70 61 40 80 91 56
149 -31 72 -141 114 -240 93 -59 -13 -129 -12 -153 3 -36 22 -71 119 -74 204
-3 71 36 113 134 145 47 14 50 20 37 60 -16 44 1 58 76 66 113 12 154 45 132
107 -10 29 -40 54 -141 117 -85 52 -104 104 -98 275 2 44 6 52 31 66 27 16 32
16 79 0 68 -23 115 -16 158 24 38 36 44 71 17 102 -28 31 -54 41 -129 48 -98
8 -119 14 -188 46 -34 16 -67 29 -75 29 -25 0 -105 43 -121 64 -21 30 -20 37
14 74 22 24 50 38 101 53 108 32 124 39 154 76 l27 33 14 -24 c40 -75 196 -62
234 19 27 56 21 102 -18 141 -19 19 -45 35 -57 35 -13 1 -31 2 -39 3 -26 2
-94 -24 -117 -46 -21 -19 -25 -20 -40 -6 -30 25 -115 60 -152 62 -32 2 -62 -2
-151 -19 -14 -3 -51 -8 -83 -11 -55 -5 -60 -4 -95 28 -21 18 -53 41 -73 52
-34 18 -79 80 -79 109 0 8 -6 20 -14 27 -24 19 -8 37 39 42 115 13 210 107
214 211 1 11 9 17 24 17 30 0 68 35 60 56 -10 26 -45 33 -85 17 -32 -13 -44
-13 -80 -1 -24 7 -57 13 -74 13 -30 -1 -32 1 -29 35 4 66 -27 150 -56 150 -10
0 -35 -21 -55 -47 -21 -27 -57 -67 -81 -91 -34 -34 -46 -41 -60 -34 -10 6 -35
12 -57 15 -31 4 -43 1 -61 -17 -12 -12 -24 -29 -27 -37 -4 -11 -14 -10 -52 10
-37 19 -46 29 -46 50 0 14 4 31 8 36 23 34 114 74 204 89 88 16 159 65 189
131 25 55 24 76 -12 146 -24 49 -29 69 -25 106 2 25 10 50 18 55 40 27 71 38
95 33 47 -8 93 6 130 42 l37 34 -25 23 c-13 13 -50 33 -82 46 -59 23 -77 42
-77 81 0 31 35 80 76 107 48 32 66 64 65 119 -1 26 -2 55 -4 63 -22 104 -45
151 -97 202 -21 20 -50 40 -66 44 -93 22 -84 102 15 144 27 11 43 33 46 65 2
18 -25 65 -38 66 -6 0 -21 2 -31 4 -11 2 -46 -8 -79 -21 -96 -41 -141 -33
-150 26 -5 33 12 86 61 190 61 130 73 161 79 207 4 36 1 46 -22 69 -23 23 -32
26 -68 20 -41 -7 -112 -49 -173 -103 -56 -50 -75 -64 -100 -74 -34 -12 -40
-12 -58 7 -20 19 -20 34 -1 34 15 0 45 49 45 74 0 19 -38 46 -66 46 -15 0 -29
-12 -43 -35 -24 -41 -43 -44 -77 -10 -30 30 -28 47 20 165 64 160 57 206 -34
201 -68 -4 -90 -40 -89 -142 1 -60 -2 -74 -22 -95 -42 -45 -90 -23 -140 66
-40 71 -96 83 -143 31 -23 -25 -50 -27 -100 -6 -55 23 -123 12 -181 -30 -23
-17 -45 -22 -93 -22 l-63 -1 3 35 c2 25 10 40 27 52 14 9 43 33 63 55 36 37
46 56 31 56 -5 1 -91 2 -191 3 -183 2 -184 2 -204 27 -31 38 -20 117 23 173
38 48 88 98 139 136 19 14 37 28 40 31 3 4 23 19 45 36 22 16 114 88 205 159
91 72 212 167 270 210 57 44 122 98 143 120 75 76 102 164 73 239 -35 91 -135
98 -266 19 -82 -50 -135 -67 -286 -92 -211 -35 -252 -60 -410 -246 -106 -125
-244 -147 -305 -49 -28 46 -47 121 -42 169 5 55 18 91 79 230 66 148 74 211
31 240 -49 32 -104 23 -128 -21 -23 -44 -68 -24 -96 43 -12 31 -38 141 -48
208 -3 17 -8 113 -11 215 -6 187 -20 279 -50 325 -47 71 -161 91 -228 40 -39
-30 -82 -108 -91 -170 -20 -126 -62 -196 -166 -276 -39 -30 -80 -63 -93 -74
-22 -19 -89 -109 -112 -150 -30 -54 -117 -56 -198 -5 -26 17 -56 30 -67 30
-33 0 -84 -26 -106 -54 -25 -31 -26 -96 -3 -215 14 -70 14 -74 -5 -87 -27 -20
-60 -27 -87 -20 -27 6 -97 73 -304 289 -144 149 -153 161 -184 240 -55 138
-117 250 -187 333 -50 60 -83 115 -140 234 -40 85 -78 162 -83 172 -8 14 -54
118 -155 348 -13 30 -42 105 -64 167 l-41 112 2 148 c2 128 0 153 -16 183 -23
44 -72 89 -106 97 -14 3 -47 25 -73 49 -84 75 -189 93 -285 47z m687 -2088
c107 -386 62 -597 -137 -633 l-51 -9 -14 36 c-46 117 -46 238 -1 370 22 64
164 355 170 348 1 -1 16 -51 33 -112z m-4289 -2505 c186 -29 283 -79 291 -150
4 -45 -4 -60 -49 -94 -42 -30 -72 -42 -118 -45 -38 -3 -81 -79 -64 -111 18
-33 47 -34 113 -2 58 29 64 29 97 16 45 -18 70 -49 70 -85 0 -29 -14 -46 -25
-29 -10 17 -44 11 -62 -10 -10 -11 -21 -20 -26 -20 -22 0 -122 -81 -151 -121
l-15 -22 -20 24 c-47 56 -117 168 -173 277 -33 64 -61 119 -63 121 -2 2 -16
-9 -31 -24 -18 -18 -29 -23 -34 -15 -4 6 -63 68 -131 136 -83 84 -120 127
-113 134 36 36 330 47 504 20z m-328 -712 c21 -24 48 -55 59 -70 l19 -27 -31
9 c-18 5 -40 17 -50 26 -17 16 -53 104 -42 104 3 0 23 -19 45 -42z m677 -38
c-6 -16 -17 -30 -24 -30 -7 0 -18 14 -24 30 -10 29 -9 30 24 30 33 0 34 -1 24
-30z m8130 -3792 c-39 -96 -73 -125 -81 -69 -7 50 18 96 65 118 23 11 43 21
43 22 1 0 -11 -32 -27 -71z m-8074 31 c13 -40 7 -108 -12 -133 -18 -25 -119
-83 -128 -74 -3 3 7 34 21 69 15 35 33 85 41 112 12 42 17 47 43 47 20 0 31
-6 35 -21z m5972 -511 c-5 -65 -23 -118 -40 -118 -14 0 -100 60 -113 79 -7 9
-12 21 -11 26 0 7 113 58 165 74 2 1 2 -27 -1 -61z m39 -395 c39 -5 45 -9 42
-27 -2 -15 -16 -25 -45 -35 l-41 -15 -46 38 c-47 38 -54 54 -35 73 8 8 20 6
46 -8 19 -11 55 -22 79 -26z"/>
<path d="M8955 16197 c-122 -40 -122 -185 1 -247 79 -40 203 -19 238 41 35 59
-3 142 -76 165 -13 4 -34 15 -48 25 -32 23 -76 29 -115 16z"/>
<path d="M12411 15636 c-10 -12 -73 -186 -70 -194 1 -2 -10 -68 -17 -107 -2
-11 -5 -58 -5 -105 l-2 -85 39 1 c58 2 98 51 113 140 7 38 19 89 27 113 18 56
18 61 -2 61 -13 0 -14 7 -8 43 10 58 6 94 -12 123 -18 27 -45 31 -63 10z"/>
<path d="M7984 14885 c-16 -41 102 -154 145 -140 25 7 27 27 6 45 -8 7 -15 18
-15 25 0 21 -81 85 -107 85 -13 0 -26 -7 -29 -15z"/>
<path d="M8626 14835 c-18 -19 -13 -34 20 -58 34 -26 74 -16 74 18 0 17 -9 29
-30 40 -36 19 -45 19 -64 0z"/>
<path d="M10128 14190 c-34 -26 -37 -80 -5 -80 26 0 60 26 76 58 11 20 9 23
-14 32 -33 13 -28 13 -57 -10z"/>
<path d="M8683 14143 c-20 -7 -16 -22 15 -54 15 -16 28 -35 28 -42 1 -6 2 -20
3 -29 1 -23 34 -23 66 -2 29 19 33 52 8 61 -10 3 -35 21 -56 40 -38 33 -42 35
-64 26z"/>
<path d="M15702 13904 c-56 -37 -92 -85 -92 -120 0 -65 121 -64 206 1 55 42
65 117 20 147 -27 19 -83 7 -134 -28z"/>
<path d="M9113 13882 c-19 -3 -23 -10 -23 -37 0 -29 3 -33 32 -37 39 -6 68 1
68 16 0 21 -54 61 -77 58z"/>
<path d="M14335 13043 c-44 -7 -94 -17 -111 -22 -23 -6 -36 -5 -45 5 -41 40
-142 17 -162 -36 -7 -18 -21 -33 -35 -37 -12 -3 -27 -14 -33 -25 -7 -13 -16
-17 -27 -13 -42 17 -74 9 -99 -24 -29 -37 3 -83 52 -73 24 4 75 47 75 62 0 4
34 8 75 9 42 1 95 5 118 10 23 5 58 12 78 15 20 3 68 17 105 31 38 15 78 29
89 32 37 12 108 58 104 68 -6 15 -93 14 -184 -2z"/>
<path d="M14865 12900 c-29 -11 -52 -40 -60 -78 -6 -27 -3 -33 16 -40 46 -18
117 0 129 32 6 17 4 76 -4 76 -1 0 -15 4 -31 9 -17 4 -39 5 -50 1z"/>
<path d="M15198 11923 c-30 -19 -50 -56 -42 -77 18 -46 144 -7 144 44 0 39
-61 59 -102 33z"/>
<path d="M15310 10157 c-14 -6 -39 -16 -55 -24 -51 -22 -96 -121 -58 -124 53
-5 86 1 118 21 37 23 78 90 73 118 -4 20 -42 24 -78 9z"/>
<path d="M4366 9409 c-67 -25 -140 -71 -144 -91 -5 -24 26 -48 61 -48 69 0
261 120 242 150 -10 16 -106 10 -159 -11z"/>
<path d="M16199 9000 c-8 -4 -38 -10 -68 -13 -60 -7 -105 -31 -97 -52 3 -8 1
-17 -3 -20 -15 -8 0 -45 24 -61 33 -22 80 -23 123 -4 43 20 82 63 82 92 0 42
-32 73 -61 58z"/>
<path d="M5003 8782 c-23 -31 -63 -107 -63 -120 0 -4 6 -16 13 -26 28 -38 92
21 115 105 18 66 -26 94 -65 41z"/>
<path d="M5359 8760 c-42 -44 -59 -87 -39 -100 22 -13 84 8 112 39 27 31 28
62 2 89 -20 20 -35 14 -75 -28z"/>
<path d="M5635 8062 c-27 -19 -40 -49 -41 -95 -3 -68 5 -82 34 -61 27 19 41
50 51 117 7 44 6 47 -13 47 -12 0 -25 -4 -31 -8z"/>
<path d="M6144 7539 c-10 -4 -34 -8 -52 -8 -18 -1 -50 -10 -71 -21 -67 -34
-62 -88 12 -144 62 -46 204 -6 291 83 l36 37 -39 22 c-43 24 -147 42 -177 31z"/>
<path d="M15064 7511 c-84 -38 -79 -103 18 -227 80 -103 170 -151 266 -141 69
7 106 33 110 76 3 28 -5 40 -58 91 -33 33 -68 60 -76 60 -9 0 -46 29 -83 65
-37 35 -83 71 -102 79 -32 13 -39 13 -75 -3z"/>
<path d="M15545 7232 c-31 -22 -49 -57 -51 -98 -3 -39 0 -46 20 -54 46 -17
107 16 137 72 20 39 14 67 -18 79 -29 11 -74 12 -88 1z"/>
<path d="M15744 7089 c-22 -8 -59 -47 -66 -69 -3 -8 1 -27 9 -42 12 -24 20
-28 57 -28 61 0 97 30 89 73 -3 18 -10 39 -14 48 -10 19 -48 29 -75 18z"/>
<path d="M15436 6805 c-27 -25 -35 -63 -13 -70 32 -11 74 -11 98 1 51 25 49
78 -3 88 -47 9 -53 8 -82 -19z"/>
<path d="M5510 6215 c-35 -12 -59 -48 -60 -92 0 -18 8 -24 38 -29 20 -5 44 -8
52 -8 96 0 168 79 108 118 -31 20 -96 25 -138 11z"/>
<path d="M15632 6154 c-14 -9 -22 -26 -22 -43 0 -21 7 -31 35 -44 77 -37 154
-34 172 5 13 29 2 60 -31 81 -33 22 -123 23 -154 1z"/>
<path d="M14430 6031 c-26 -26 -28 -32 -20 -62 8 -28 23 -46 40 -50 3 0 12 -2
22 -4 9 -2 30 6 47 16 25 15 31 25 31 51 0 39 -7 51 -37 67 -34 17 -52 13 -83
-18z"/>
<path d="M15021 5815 c-29 -15 -38 -71 -18 -100 18 -23 72 -23 98 1 30 27 24
61 -13 80 -18 9 -35 20 -38 25 -3 4 -16 2 -29 -6z"/>
<path d="M12267 5575 c-43 -31 -40 -97 5 -114 26 -9 45 -5 70 16 24 21 27 47
11 82 -13 25 -21 31 -44 29 -15 -1 -34 -7 -42 -13z"/>
<path d="M10930 5478 c-90 -15 -179 -112 -163 -177 16 -69 97 -124 179 -123
110 3 186 73 200 187 3 27 0 35 -16 40 -11 3 -20 10 -20 15 0 13 -89 63 -114
65 -12 0 -42 -3 -66 -7z"/>
<path d="M13399 5327 c-42 -11 -40 -9 -45 -49 -8 -66 61 -99 111 -52 20 19 25
31 23 63 -3 34 -7 40 -29 43 -14 2 -41 0 -60 -5z"/>
<path d="M11424 4939 c-9 -10 -27 -19 -38 -19 -28 0 -81 -33 -101 -64 -50 -75
-7 -152 90 -161 66 -6 183 62 201 117 18 58 -23 115 -99 136 -30 9 -38 7 -53
-9z"/>
<path d="M10863 4755 c-21 -15 -38 -53 -47 -109 -6 -31 17 -95 33 -97 48 -6
77 0 100 22 12 11 24 34 28 50 3 16 12 29 20 29 11 0 9 9 -8 40 -40 70 -85 94
-126 65z"/>
<path d="M7682 4478 c-60 -22 -80 -52 -78 -117 1 -34 3 -36 30 -33 77 8 119
45 131 114 10 52 -13 62 -83 36z"/>
<path d="M9733 4361 c-24 -4 -46 -11 -50 -15 -5 -5 8 -5 27 -1 l35 8 -32 -30
c-27 -25 -53 -83 -53 -120 0 -6 13 -15 28 -21 23 -8 39 -4 90 19 34 16 66 38
72 50 18 33 3 75 -36 98 -19 12 -36 20 -37 20 -1 -1 -21 -5 -44 -8z"/>
<path d="M9195 4348 c-22 -5 -50 -11 -63 -14 -28 -6 -91 -71 -99 -102 -14 -56
38 -98 110 -89 86 11 126 74 119 183 -2 28 -17 33 -67 22z"/>
</g>
</svg>
